<?xml version="1.0" standalone="no"?>
<!DOCTYPE svg PUBLIC "-//W3C//DTD SVG 20010904//EN"
 "http://www.w3.org/TR/2001/REC-SVG-20010904/DTD/svg10.dtd">
<svg version="1.0" xmlns="http://www.w3.org/2000/svg"
 width="260.000000pt" height="260.000000pt" viewBox="0 0 260.000000 260.000000"
 preserveAspectRatio="xMidYMid meet">
<metadata>
Created by potrace 1.11, written by Peter Selinger 2001-2013
</metadata>
<g transform="translate(0.000000,260.000000) scale(0.100000,-0.100000)"
fill="#000000" stroke="none">
<path d="M65 2436 c-11 -6 -30 -22 -43 -36 -24 -27 -25 -53 -3 -150 11 -50 15
-72 36 -180 8 -41 17 -88 20 -105 3 -16 24 -120 46 -230 51 -248 46 -226 53
-269 3 -19 10 -55 15 -78 6 -24 13 -59 16 -78 3 -19 10 -51 15 -70 8 -31 12
-55 25 -135 2 -11 13 -65 25 -120 11 -55 23 -113 26 -130 20 -117 39 -161 88
-213 31 -34 89 -69 130 -79 36 -9 1859 -10 1888 0 75 24 85 131 15 168 -16 9
-241 12 -922 11 -495 0 -912 2 -926 4 -53 10 -77 56 -95 179 -1 11 -14 74 -28
140 -14 66 -28 136 -31 155 -3 19 -8 46 -10 60 -3 14 -7 34 -9 45 -2 11 -11
52 -20 90 -11 53 -103 517 -142 720 -2 11 -6 31 -9 45 -3 14 -12 59 -20 100
-20 102 -32 128 -69 147 -40 22 -47 23 -71 9z"/>
<path d="M467 2141 c-64 -44 -67 -84 -23 -281 14 -63 27 -128 30 -145 4 -28
27 -145 41 -205 3 -14 10 -54 16 -89 5 -36 12 -68 15 -72 2 -4 6 -20 8 -36 2
-15 11 -64 20 -108 9 -44 24 -116 32 -160 17 -84 42 -137 72 -151 9 -4 377 -9
817 -10 873 -2 850 -3 879 55 11 22 17 39 31 101 1 3 5 25 9 50 14 75 15 84
21 110 3 14 7 36 10 50 11 60 92 465 121 600 39 188 40 213 15 254 -13 21 -34
39 -54 44 -20 7 -410 10 -1035 9 -888 0 -1005 -2 -1025 -16z"/>
<path d="M643 441 c-53 -25 -82 -77 -78 -142 3 -55 25 -91 71 -120 94 -58 211
6 221 120 6 63 -20 109 -77 139 -54 27 -82 27 -137 3z"/>
<path d="M2032 453 c-35 -7 -90 -68 -98 -108 -14 -78 19 -144 89 -175 67 -30
143 -3 182 65 32 53 32 97 0 150 -34 59 -94 83 -173 68z"/>
</g>
</svg>
